<svg width="930" height="37" viewBox="0 0 930 37" fill="none" xmlns="http://www.w3.org/2000/svg">
<rect y="3" width="930" height="29" rx="14.5" fill="#77A6F7"/>
<rect y="3" width="260" height="29" rx="14.5" fill="#224F9D"/>
<circle cx="248.5" cy="18.5" r="18.5" fill="black"/>
<circle cx="248.5" cy="18.5" r="18.5" fill="black"/>
<circle cx="248.5" cy="18.5" r="18.5" fill="black"/>
<circle cx="248.5" cy="18.5" r="18.5" fill="black"/>
<circle cx="248.5" cy="18.5" r="18.5" fill="white"/>
<path d="M259 18.5C259 24.299 254.299 29 248.5 29C242.701 29 238 24.299 238 18.5C238 12.701 242.701 8 248.5 8C254.299 8 259 12.701 259 18.5Z" fill="black"/>
<path d="M259 18.5C259 24.299 254.299 29 248.5 29C242.701 29 238 24.299 238 18.5C238 12.701 242.701 8 248.5 8C254.299 8 259 12.701 259 18.5Z" fill="black"/>
<path d="M259 18.5C259 24.299 254.299 29 248.5 29C242.701 29 238 24.299 238 18.5C238 12.701 242.701 8 248.5 8C254.299 8 259 12.701 259 18.5Z" fill="black"/>
<path d="M259 18.5C259 24.299 254.299 29 248.5 29C242.701 29 238 24.299 238 18.5C238 12.701 242.701 8 248.5 8C254.299 8 259 12.701 259 18.5Z" fill="black"/>
<path d="M259 18.5C259 24.299 254.299 29 248.5 29C242.701 29 238 24.299 238 18.5C238 12.701 242.701 8 248.5 8C254.299 8 259 12.701 259 18.5Z" fill="#939393"/>
</svg>
